<svg width="234" height="61" viewBox="0 0 234 61" fill="none" xmlns="http://www.w3.org/2000/svg">
<circle cx="30.5" cy="30.5" r="30.5" fill="#A587A9"/>
<path d="M55.6563 14V46H49.0938L36.3594 27.5312H36.1563V46H28.4219V14H35.0781L47.6719 32.4375H47.9375V14H55.6563Z" fill="white"/>
<path d="M69.4852 46.4063C67.9539 46.4063 66.5945 46.151 65.407 45.6406C64.2299 45.1198 63.2977 44.3385 62.6102 43.2969C61.9331 42.2448 61.5945 40.9271 61.5945 39.3438C61.5945 38.0104 61.8289 36.8854 62.2977 35.9687C62.7664 35.0521 63.4122 34.3073 64.2352 33.7344C65.0581 33.1615 66.006 32.7292 67.0789 32.4375C68.1518 32.1354 69.2977 31.9323 70.5164 31.8281C71.881 31.7031 72.9799 31.5729 73.8133 31.4375C74.6466 31.2917 75.2508 31.0885 75.6258 30.8281C76.0112 30.5573 76.2039 30.1771 76.2039 29.6875V29.6094C76.2039 28.8073 75.9279 28.1875 75.3758 27.75C74.8237 27.3125 74.0789 27.0938 73.1414 27.0938C72.131 27.0938 71.3185 27.3125 70.7039 27.75C70.0893 28.1875 69.6987 28.7917 69.532 29.5625L62.4852 29.3125C62.6935 27.8542 63.2299 26.5521 64.0945 25.4062C64.9695 24.25 66.1674 23.3438 67.6883 22.6875C69.2195 22.0208 71.0581 21.6875 73.2039 21.6875C74.7352 21.6875 76.1466 21.8698 77.4383 22.2344C78.7299 22.5885 79.8549 23.1094 80.8133 23.7969C81.7716 24.474 82.5112 25.3073 83.032 26.2969C83.5633 27.2865 83.8289 28.4167 83.8289 29.6875V46H76.6414V42.6562H76.4539C76.0268 43.4687 75.4799 44.1562 74.8133 44.7187C74.157 45.2813 73.381 45.7031 72.4852 45.9844C71.5997 46.2656 70.5997 46.4063 69.4852 46.4063ZM71.8445 41.4062C72.6674 41.4062 73.407 41.2396 74.0633 40.9062C74.7299 40.5729 75.2612 40.1146 75.657 39.5312C76.0529 38.9375 76.2508 38.25 76.2508 37.4687V35.1875C76.032 35.3021 75.7664 35.4062 75.4539 35.5C75.1518 35.5937 74.8185 35.6823 74.4539 35.7656C74.0893 35.849 73.7143 35.9219 73.3289 35.9844C72.9435 36.0469 72.5737 36.1042 72.2195 36.1562C71.5008 36.2708 70.8862 36.4479 70.3758 36.6875C69.8758 36.9271 69.4904 37.2396 69.2195 37.625C68.9591 38 68.8289 38.4479 68.8289 38.9687C68.8289 39.7604 69.1102 40.3646 69.6727 40.7812C70.2456 41.1979 70.9695 41.4062 71.8445 41.4062ZM90.7008 46V22H98.1227V26.375H98.3727C98.8102 24.7917 99.5237 23.6146 100.513 22.8437C101.503 22.0625 102.654 21.6719 103.966 21.6719C104.321 21.6719 104.685 21.6979 105.06 21.75C105.435 21.7917 105.784 21.8594 106.107 21.9531V28.5937C105.742 28.4687 105.263 28.3698 104.67 28.2969C104.086 28.224 103.565 28.1875 103.107 28.1875C102.201 28.1875 101.383 28.3906 100.654 28.7969C99.9352 29.1927 99.3674 29.75 98.9508 30.4687C98.5445 31.1771 98.3414 32.0104 98.3414 32.9687V46H90.7008ZM111.42 46V22H119.061V46H111.42ZM115.248 19.2031C114.176 19.2031 113.254 18.849 112.483 18.1406C111.712 17.4219 111.327 16.5573 111.327 15.5469C111.327 14.5469 111.712 13.6927 112.483 12.9844C113.254 12.2656 114.176 11.9062 115.248 11.9062C116.332 11.9062 117.254 12.2656 118.014 12.9844C118.785 13.6927 119.17 14.5469 119.17 15.5469C119.17 16.5573 118.785 17.4219 118.014 18.1406C117.254 18.849 116.332 19.2031 115.248 19.2031ZM126.124 46V22H133.765V46H126.124ZM129.952 19.2031C128.879 19.2031 127.958 18.849 127.187 18.1406C126.416 17.4219 126.03 16.5573 126.03 15.5469C126.03 14.5469 126.416 13.6927 127.187 12.9844C127.958 12.2656 128.879 11.9062 129.952 11.9062C131.036 11.9062 131.958 12.2656 132.718 12.9844C133.489 13.6927 133.874 14.5469 133.874 15.5469C133.874 16.5573 133.489 17.4219 132.718 18.1406C131.958 18.849 131.036 19.2031 129.952 19.2031ZM152.481 46V14H160.216V39.7187H173.528V46H152.481ZM186.498 46.4063C184.966 46.4063 183.607 46.151 182.42 45.6406C181.242 45.1198 180.31 44.3385 179.623 43.2969C178.946 42.2448 178.607 40.9271 178.607 39.3438C178.607 38.0104 178.841 36.8854 179.31 35.9687C179.779 35.0521 180.425 34.3073 181.248 33.7344C182.071 33.1615 183.018 32.7292 184.091 32.4375C185.164 32.1354 186.31 31.9323 187.529 31.8281C188.893 31.7031 189.992 31.5729 190.826 31.4375C191.659 31.2917 192.263 31.0885 192.638 30.8281C193.024 30.5573 193.216 30.1771 193.216 29.6875V29.6094C193.216 28.8073 192.94 28.1875 192.388 27.75C191.836 27.3125 191.091 27.0938 190.154 27.0938C189.143 27.0938 188.331 27.3125 187.716 27.75C187.102 28.1875 186.711 28.7917 186.545 29.5625L179.498 29.3125C179.706 27.8542 180.242 26.5521 181.107 25.4062C181.982 24.25 183.18 23.3438 184.701 22.6875C186.232 22.0208 188.071 21.6875 190.216 21.6875C191.748 21.6875 193.159 21.8698 194.451 22.2344C195.742 22.5885 196.867 23.1094 197.826 23.7969C198.784 24.474 199.524 25.3073 200.045 26.2969C200.576 27.2865 200.841 28.4167 200.841 29.6875V46H193.654V42.6562H193.466C193.039 43.4687 192.492 44.1562 191.826 44.7187C191.17 45.2813 190.393 45.7031 189.498 45.9844C188.612 46.2656 187.612 46.4063 186.498 46.4063ZM188.857 41.4062C189.68 41.4062 190.42 41.2396 191.076 40.9062C191.742 40.5729 192.274 40.1146 192.67 39.5312C193.065 38.9375 193.263 38.25 193.263 37.4687V35.1875C193.045 35.3021 192.779 35.4062 192.466 35.5C192.164 35.5937 191.831 35.6823 191.466 35.7656C191.102 35.849 190.727 35.9219 190.341 35.9844C189.956 36.0469 189.586 36.1042 189.232 36.1562C188.513 36.2708 187.899 36.4479 187.388 36.6875C186.888 36.9271 186.503 37.2396 186.232 37.625C185.972 38 185.841 38.4479 185.841 38.9687C185.841 39.7604 186.123 40.3646 186.685 40.7812C187.258 41.1979 187.982 41.4062 188.857 41.4062ZM207.713 46V14H215.354V26.1094H215.51C215.823 25.3802 216.265 24.6771 216.838 24C217.422 23.3229 218.161 22.7708 219.057 22.3437C219.963 21.9062 221.047 21.6875 222.307 21.6875C223.974 21.6875 225.531 22.125 226.979 23C228.437 23.875 229.614 25.224 230.51 27.0469C231.406 28.8698 231.854 31.1927 231.854 34.0156C231.854 36.7344 231.422 39.0104 230.557 40.8438C229.703 42.6771 228.547 44.0521 227.088 44.9688C225.64 45.8854 224.031 46.3438 222.26 46.3438C221.052 46.3438 220.005 46.1458 219.12 45.75C218.234 45.3542 217.489 44.8333 216.885 44.1875C216.291 43.5417 215.833 42.849 215.51 42.1094H215.276V46H207.713ZM215.198 34C215.198 35.2917 215.37 36.4167 215.713 37.375C216.067 38.3333 216.573 39.0781 217.229 39.6094C217.896 40.1302 218.692 40.3906 219.62 40.3906C220.557 40.3906 221.354 40.1302 222.01 39.6094C222.666 39.0781 223.161 38.3333 223.495 37.375C223.838 36.4167 224.01 35.2917 224.01 34C224.01 32.7083 223.838 31.5885 223.495 30.6406C223.161 29.6927 222.666 28.9583 222.01 28.4375C221.364 27.9167 220.567 27.6562 219.62 27.6562C218.682 27.6562 217.885 27.9115 217.229 28.4219C216.573 28.9323 216.067 29.6615 215.713 30.6094C215.37 31.5573 215.198 32.6875 215.198 34Z" fill="#A587A9"/>
</svg>
