<svg width="222" height="61" viewBox="0 0 222 61" fill="none" xmlns="http://www.w3.org/2000/svg">
<circle cx="30.5" cy="30.5" r="30.5" fill="#A587A9"/>
<path d="M55.6563 14V46H49.0938L36.3594 27.5312H36.1563V46H28.4219V14H35.0781L47.6719 32.4375H47.9375V14H55.6563Z" fill="white"/>
<path d="M69.4852 46.4063C67.9539 46.4063 66.5945 46.151 65.407 45.6406C64.2299 45.1198 63.2977 44.3385 62.6102 43.2969C61.9331 42.2448 61.5945 40.9271 61.5945 39.3438C61.5945 38.0104 61.8289 36.8854 62.2977 35.9687C62.7664 35.0521 63.4122 34.3073 64.2352 33.7344C65.0581 33.1615 66.006 32.7292 67.0789 32.4375C68.1518 32.1354 69.2977 31.9323 70.5164 31.8281C71.881 31.7031 72.9799 31.5729 73.8133 31.4375C74.6466 31.2917 75.2508 31.0885 75.6258 30.8281C76.0112 30.5573 76.2039 30.1771 76.2039 29.6875V29.6094C76.2039 28.8073 75.9279 28.1875 75.3758 27.75C74.8237 27.3125 74.0789 27.0938 73.1414 27.0938C72.131 27.0938 71.3185 27.3125 70.7039 27.75C70.0893 28.1875 69.6987 28.7917 69.532 29.5625L62.4852 29.3125C62.6935 27.8542 63.2299 26.5521 64.0945 25.4062C64.9695 24.25 66.1674 23.3438 67.6883 22.6875C69.2195 22.0208 71.0581 21.6875 73.2039 21.6875C74.7352 21.6875 76.1466 21.8698 77.4383 22.2344C78.7299 22.5885 79.8549 23.1094 80.8133 23.7969C81.7716 24.474 82.5112 25.3073 83.032 26.2969C83.5633 27.2865 83.8289 28.4167 83.8289 29.6875V46H76.6414V42.6562H76.4539C76.0268 43.4687 75.4799 44.1562 74.8133 44.7187C74.157 45.2813 73.381 45.7031 72.4852 45.9844C71.5997 46.2656 70.5997 46.4063 69.4852 46.4063ZM71.8445 41.4062C72.6674 41.4062 73.407 41.2396 74.0633 40.9062C74.7299 40.5729 75.2612 40.1146 75.657 39.5312C76.0529 38.9375 76.2508 38.25 76.2508 37.4687V35.1875C76.032 35.3021 75.7664 35.4062 75.4539 35.5C75.1518 35.5937 74.8185 35.6823 74.4539 35.7656C74.0893 35.849 73.7143 35.9219 73.3289 35.9844C72.9435 36.0469 72.5737 36.1042 72.2195 36.1562C71.5008 36.2708 70.8862 36.4479 70.3758 36.6875C69.8758 36.9271 69.4904 37.2396 69.2195 37.625C68.9591 38 68.8289 38.4479 68.8289 38.9687C68.8289 39.7604 69.1102 40.3646 69.6727 40.7812C70.2456 41.1979 70.9695 41.4062 71.8445 41.4062ZM90.7008 46V22H98.1227V26.375H98.3727C98.8102 24.7917 99.5237 23.6146 100.513 22.8437C101.503 22.0625 102.654 21.6719 103.966 21.6719C104.321 21.6719 104.685 21.6979 105.06 21.75C105.435 21.7917 105.784 21.8594 106.107 21.9531V28.5937C105.742 28.4687 105.263 28.3698 104.67 28.2969C104.086 28.224 103.565 28.1875 103.107 28.1875C102.201 28.1875 101.383 28.3906 100.654 28.7969C99.9352 29.1927 99.3674 29.75 98.9508 30.4687C98.5445 31.1771 98.3414 32.0104 98.3414 32.9687V46H90.7008ZM111.42 46V22H119.061V46H111.42ZM115.248 19.2031C114.176 19.2031 113.254 18.849 112.483 18.1406C111.712 17.4219 111.327 16.5573 111.327 15.5469C111.327 14.5469 111.712 13.6927 112.483 12.9844C113.254 12.2656 114.176 11.9062 115.248 11.9062C116.332 11.9062 117.254 12.2656 118.014 12.9844C118.785 13.6927 119.17 14.5469 119.17 15.5469C119.17 16.5573 118.785 17.4219 118.014 18.1406C117.254 18.849 116.332 19.2031 115.248 19.2031ZM126.124 46V22H133.765V46H126.124ZM129.952 19.2031C128.879 19.2031 127.958 18.849 127.187 18.1406C126.416 17.4219 126.03 16.5573 126.03 15.5469C126.03 14.5469 126.416 13.6927 127.187 12.9844C127.958 12.2656 128.879 11.9062 129.952 11.9062C131.036 11.9062 131.958 12.2656 132.718 12.9844C133.489 13.6927 133.874 14.5469 133.874 15.5469C133.874 16.5573 133.489 17.4219 132.718 18.1406C131.958 18.849 131.036 19.2031 129.952 19.2031ZM140.828 46V14H148.563V39.7187H161.875V46H140.828ZM174.845 46.4063C173.313 46.4063 171.954 46.151 170.766 45.6406C169.589 45.1198 168.657 44.3385 167.97 43.2969C167.292 42.2448 166.954 40.9271 166.954 39.3438C166.954 38.0104 167.188 36.8854 167.657 35.9687C168.126 35.0521 168.772 34.3073 169.595 33.7344C170.417 33.1615 171.365 32.7292 172.438 32.4375C173.511 32.1354 174.657 31.9323 175.876 31.8281C177.24 31.7031 178.339 31.5729 179.173 31.4375C180.006 31.2917 180.61 31.0885 180.985 30.8281C181.371 30.5573 181.563 30.1771 181.563 29.6875V29.6094C181.563 28.8073 181.287 28.1875 180.735 27.75C180.183 27.3125 179.438 27.0938 178.501 27.0938C177.49 27.0938 176.678 27.3125 176.063 27.75C175.449 28.1875 175.058 28.7917 174.891 29.5625L167.845 29.3125C168.053 27.8542 168.589 26.5521 169.454 25.4062C170.329 24.25 171.527 23.3438 173.048 22.6875C174.579 22.0208 176.417 21.6875 178.563 21.6875C180.095 21.6875 181.506 21.8698 182.798 22.2344C184.089 22.5885 185.214 23.1094 186.173 23.7969C187.131 24.474 187.871 25.3073 188.391 26.2969C188.923 27.2865 189.188 28.4167 189.188 29.6875V46H182.001V42.6562H181.813C181.386 43.4687 180.839 44.1562 180.173 44.7187C179.516 45.2813 178.74 45.7031 177.845 45.9844C176.959 46.2656 175.959 46.4063 174.845 46.4063ZM177.204 41.4062C178.027 41.4062 178.766 41.2396 179.423 40.9062C180.089 40.5729 180.621 40.1146 181.016 39.5312C181.412 38.9375 181.61 38.25 181.61 37.4687V35.1875C181.391 35.3021 181.126 35.4062 180.813 35.5C180.511 35.5937 180.178 35.6823 179.813 35.7656C179.449 35.849 179.074 35.9219 178.688 35.9844C178.303 36.0469 177.933 36.1042 177.579 36.1562C176.86 36.2708 176.246 36.4479 175.735 36.6875C175.235 36.9271 174.85 37.2396 174.579 37.625C174.318 38 174.188 38.4479 174.188 38.9687C174.188 39.7604 174.47 40.3646 175.032 40.7812C175.605 41.1979 176.329 41.4062 177.204 41.4062ZM196.06 46V14H203.701V26.1094H203.857C204.17 25.3802 204.612 24.6771 205.185 24C205.768 23.3229 206.508 22.7708 207.404 22.3437C208.31 21.9062 209.393 21.6875 210.654 21.6875C212.321 21.6875 213.878 22.125 215.326 23C216.784 23.875 217.961 25.224 218.857 27.0469C219.753 28.8698 220.201 31.1927 220.201 34.0156C220.201 36.7344 219.768 39.0104 218.904 40.8438C218.05 42.6771 216.893 44.0521 215.435 44.9688C213.987 45.8854 212.378 46.3438 210.607 46.3438C209.399 46.3438 208.352 46.1458 207.466 45.75C206.581 45.3542 205.836 44.8333 205.232 44.1875C204.638 43.5417 204.18 42.849 203.857 42.1094H203.623V46H196.06ZM203.545 34C203.545 35.2917 203.716 36.4167 204.06 37.375C204.414 38.3333 204.92 39.0781 205.576 39.6094C206.242 40.1302 207.039 40.3906 207.966 40.3906C208.904 40.3906 209.701 40.1302 210.357 39.6094C211.013 39.0781 211.508 38.3333 211.841 37.375C212.185 36.4167 212.357 35.2917 212.357 34C212.357 32.7083 212.185 31.5885 211.841 30.6406C211.508 29.6927 211.013 28.9583 210.357 28.4375C209.711 27.9167 208.914 27.6562 207.966 27.6562C207.029 27.6562 206.232 27.9115 205.576 28.4219C204.92 28.9323 204.414 29.6615 204.06 30.6094C203.716 31.5573 203.545 32.6875 203.545 34Z" fill="#A587A9"/>
</svg>
